<svg xmlns="http://www.w3.org/2000/svg" xmlns:xlink="http://www.w3.org/1999/xlink" width="800" zoomAndPan="magnify" viewBox="0 0 600 599.999999" height="800" preserveAspectRatio="xMidYMid meet" version="1.2"><defs><clipPath id="00f3b43d20"><path d="M 240.878906 226.6875 L 269.128906 226.6875 L 269.128906 254.941406 L 240.878906 254.941406 Z M 240.878906 226.6875 "/></clipPath><clipPath id="a350cd69f7"><path d="M 255.003906 226.6875 C 247.203125 226.6875 240.878906 233.011719 240.878906 240.8125 C 240.878906 248.613281 247.203125 254.941406 255.003906 254.941406 C 262.804688 254.941406 269.128906 248.613281 269.128906 240.8125 C 269.128906 233.011719 262.804688 226.6875 255.003906 226.6875 Z M 255.003906 226.6875 "/></clipPath><clipPath id="e5c717f77c"><path d="M 240.878906 226.6875 L 269.121094 226.6875 L 269.121094 254.929688 L 240.878906 254.929688 Z M 240.878906 226.6875 "/></clipPath><clipPath id="e91fe5a068"><path d="M 255 226.6875 C 247.199219 226.6875 240.878906 233.011719 240.878906 240.808594 C 240.878906 248.609375 247.199219 254.929688 255 254.929688 C 262.796875 254.929688 269.121094 248.609375 269.121094 240.808594 C 269.121094 233.011719 262.796875 226.6875 255 226.6875 Z M 255 226.6875 "/></clipPath><clipPath id="8638a257a9"><path d="M 212.625 251.488281 L 240.878906 251.488281 L 240.878906 279.738281 L 212.625 279.738281 Z M 212.625 251.488281 "/></clipPath><clipPath id="28c09a6a68"><path d="M 226.75 251.488281 C 218.949219 251.488281 212.625 257.8125 212.625 265.613281 C 212.625 273.414062 218.949219 279.738281 226.75 279.738281 C 234.554688 279.738281 240.878906 273.414062 240.878906 265.613281 C 240.878906 257.8125 234.554688 251.488281 226.75 251.488281 Z M 226.75 251.488281 "/></clipPath><clipPath id="08d5267586"><path d="M 212.625 251.488281 L 240.867188 251.488281 L 240.867188 279.730469 L 212.625 279.730469 Z M 212.625 251.488281 "/></clipPath><clipPath id="57e90357cd"><path d="M 226.746094 251.488281 C 218.949219 251.488281 212.625 257.808594 212.625 265.609375 C 212.625 273.40625 218.949219 279.730469 226.746094 279.730469 C 234.546875 279.730469 240.867188 273.40625 240.867188 265.609375 C 240.867188 257.808594 234.546875 251.488281 226.746094 251.488281 Z M 226.746094 251.488281 "/></clipPath></defs><g id="479e92bd96"><g style="fill:#5e17eb;fill-opacity:1;"><g transform="translate(10.62772, 337.287046)"><path style="stroke:none" d="M 31.21875 1.015625 C 22.238281 1.015625 15.707031 -1.394531 11.625 -6.21875 C 7.550781 -11.050781 5.515625 -17.75 5.515625 -26.3125 C 5.515625 -31.070312 6.53125 -35.390625 8.5625 -39.265625 C 10.601562 -43.140625 13.546875 -46.234375 17.390625 -48.546875 C 21.234375 -50.859375 25.875 -52.015625 31.3125 -52.015625 C 36.144531 -52.015625 40.378906 -51.316406 44.015625 -49.921875 C 47.648438 -48.535156 50.625 -46.550781 52.9375 -43.96875 C 53.613281 -43.351562 53.953125 -42.601562 53.953125 -41.71875 C 53.953125 -40.632812 53.476562 -39.679688 52.53125 -38.859375 L 52.421875 -38.765625 C 53.992188 -36.785156 55.253906 -34.4375 56.203125 -31.71875 C 57.148438 -29 57.625 -26.109375 57.625 -23.046875 C 57.625 -15.835938 55.414062 -10.023438 51 -5.609375 C 46.582031 -1.191406 39.988281 1.015625 31.21875 1.015625 Z M 14.28125 -26.015625 C 14.28125 -19.890625 15.707031 -15.175781 18.5625 -11.875 C 21.414062 -8.582031 25.867188 -6.9375 31.921875 -6.9375 C 37.773438 -6.9375 42.039062 -8.394531 44.71875 -11.3125 C 47.40625 -14.238281 48.75 -18.015625 48.75 -22.640625 C 48.75 -25.085938 48.359375 -27.453125 47.578125 -29.734375 C 46.796875 -32.015625 45.625 -33.898438 44.0625 -35.390625 C 43.175781 -36.066406 42.734375 -36.816406 42.734375 -37.640625 C 42.734375 -38.453125 43.175781 -39.40625 44.0625 -40.5 C 42.5 -41.519531 40.660156 -42.367188 38.546875 -43.046875 C 36.441406 -43.722656 34 -44.0625 31.21875 -44.0625 C 27.882812 -44.0625 24.941406 -43.28125 22.390625 -41.71875 C 19.835938 -40.15625 17.847656 -38.015625 16.421875 -35.296875 C 14.992188 -32.578125 14.28125 -29.484375 14.28125 -26.015625 Z M 14.28125 -26.015625 "/></g></g><g style="fill:#5e17eb;fill-opacity:1;"><g transform="translate(73.663675, 337.287046)"><path style="stroke:none" d="M 28.765625 1.015625 C 21.554688 1.015625 16.316406 -1.039062 13.046875 -5.15625 C 9.785156 -9.269531 8.15625 -15.234375 8.15625 -23.046875 C 8.15625 -27.535156 8.34375 -32.003906 8.71875 -36.453125 C 9.09375 -40.910156 9.65625 -45.25 10.40625 -49.46875 C 10.539062 -50.414062 10.945312 -51.078125 11.625 -51.453125 C 12.300781 -51.828125 13.082031 -52.015625 13.96875 -52.015625 C 14.238281 -52.015625 14.492188 -52.015625 14.734375 -52.015625 C 14.972656 -52.015625 15.226562 -51.984375 15.5 -51.921875 C 17.0625 -51.515625 18.097656 -50.988281 18.609375 -50.34375 C 19.117188 -49.695312 19.273438 -48.863281 19.078125 -47.84375 C 18.535156 -44.375 18.039062 -40.425781 17.59375 -36 C 17.15625 -31.582031 16.9375 -27.570312 16.9375 -23.96875 C 16.9375 -18.394531 18.019531 -14.160156 20.1875 -11.265625 C 22.363281 -8.378906 25.832031 -6.9375 30.59375 -6.9375 C 33.789062 -6.9375 36.695312 -7.734375 39.3125 -9.328125 C 41.9375 -10.929688 44.097656 -13.601562 45.796875 -17.34375 C 47.492188 -21.082031 48.445312 -26.210938 48.65625 -32.734375 C 48.71875 -34.234375 48.765625 -36.070312 48.796875 -38.25 C 48.835938 -40.425781 48.875 -42.515625 48.90625 -44.515625 C 48.9375 -46.523438 48.953125 -48.003906 48.953125 -48.953125 C 49.023438 -50.046875 49.382812 -50.828125 50.03125 -51.296875 C 50.675781 -51.773438 52.019531 -52.015625 54.0625 -52.015625 C 56.4375 -52.015625 57.660156 -50.925781 57.734375 -48.75 C 57.796875 -46.300781 57.789062 -43.988281 57.71875 -41.8125 C 57.65625 -39.644531 57.585938 -37.265625 57.515625 -34.671875 C 57.453125 -32.085938 57.421875 -28.960938 57.421875 -25.296875 C 57.421875 -21.898438 57.503906 -19.023438 57.671875 -16.671875 C 57.847656 -14.328125 58.140625 -12.21875 58.546875 -10.34375 C 58.953125 -8.476562 59.5 -6.5625 60.1875 -4.59375 C 60.382812 -3.976562 60.484375 -3.398438 60.484375 -2.859375 C 60.484375 -1.492188 59.597656 -0.4375 57.828125 0.3125 C 56.742188 0.71875 55.796875 0.921875 54.984375 0.921875 C 53.691406 0.921875 52.632812 0.171875 51.8125 -1.328125 C 50.457031 -5.128906 49.609375 -8.867188 49.265625 -12.546875 C 47.296875 -8.128906 44.539062 -4.765625 41 -2.453125 C 37.46875 -0.140625 33.390625 1.015625 28.765625 1.015625 Z M 28.765625 1.015625 "/></g></g><g style="fill:#5e17eb;fill-opacity:1;"><g transform="translate(141.901633, 337.287046)"><path style="stroke:none" d="M 27.640625 1.015625 C 22.472656 1.015625 18.304688 -0.425781 15.140625 -3.3125 C 11.984375 -6.207031 10.40625 -10.710938 10.40625 -16.828125 C 10.40625 -20.640625 10.453125 -24.804688 10.546875 -29.328125 C 10.648438 -33.847656 10.769531 -38.421875 10.90625 -43.046875 L 5 -43.046875 C 2.34375 -43.046875 1.015625 -44.40625 1.015625 -47.125 C 1.015625 -48.550781 1.320312 -49.550781 1.9375 -50.125 C 2.550781 -50.707031 3.640625 -51 5.203125 -51 L 11.125 -51 C 11.257812 -53.375 11.375 -55.664062 11.46875 -57.875 C 11.570312 -60.09375 11.660156 -62.222656 11.734375 -64.265625 C 11.867188 -65.421875 12.222656 -66.203125 12.796875 -66.609375 C 13.378906 -67.015625 14.179688 -67.21875 15.203125 -67.21875 C 17.242188 -67.21875 18.6875 -66.960938 19.53125 -66.453125 C 20.382812 -65.941406 20.742188 -64.90625 20.609375 -63.34375 C 20.535156 -61.4375 20.445312 -59.445312 20.34375 -57.375 C 20.25 -55.300781 20.164062 -53.140625 20.09375 -50.890625 L 36.203125 -50.796875 C 38.648438 -50.796875 39.875 -49.503906 39.875 -46.921875 C 39.875 -45.628906 39.617188 -44.640625 39.109375 -43.953125 C 38.609375 -43.273438 37.675781 -42.9375 36.3125 -42.9375 L 19.78125 -43.046875 C 19.71875 -38.554688 19.632812 -34.117188 19.53125 -29.734375 C 19.425781 -25.347656 19.375 -21.285156 19.375 -17.546875 C 19.375 -14.003906 20.328125 -11.363281 22.234375 -9.625 C 24.140625 -7.894531 26.414062 -7.03125 29.0625 -7.03125 C 30.5 -7.03125 31.894531 -7.21875 33.25 -7.59375 C 34.613281 -7.96875 36.144531 -8.90625 37.84375 -10.40625 C 38.25 -10.601562 38.65625 -10.703125 39.0625 -10.703125 C 40.15625 -10.703125 41.175781 -9.890625 42.125 -8.265625 C 42.53125 -7.578125 42.734375 -6.894531 42.734375 -6.21875 C 42.734375 -5.0625 42.019531 -4.109375 40.59375 -3.359375 C 38.625 -1.597656 36.648438 -0.429688 34.671875 0.140625 C 32.703125 0.722656 30.359375 1.015625 27.640625 1.015625 Z M 27.640625 1.015625 "/></g></g><g style="fill:#5e17eb;fill-opacity:1;"><g transform="translate(185.557603, 337.287046)"><path style="stroke:none" d="M 13.671875 1.015625 C 12.242188 1.015625 11.253906 0.722656 10.703125 0.140625 C 10.160156 -0.429688 9.859375 -1.363281 9.796875 -2.65625 C 9.316406 -7.550781 8.921875 -12.734375 8.609375 -18.203125 C 8.304688 -23.679688 8.15625 -29.273438 8.15625 -34.984375 C 8.15625 -44.367188 8.304688 -52.140625 8.609375 -58.296875 C 8.921875 -64.453125 9.25 -69.671875 9.59375 -73.953125 C 9.726562 -75.304688 10.082031 -76.222656 10.65625 -76.703125 C 11.238281 -77.179688 12.207031 -77.421875 13.5625 -77.421875 C 15.539062 -77.421875 16.867188 -77.128906 17.546875 -76.546875 C 18.222656 -75.972656 18.492188 -74.972656 18.359375 -73.546875 C 18.085938 -69.054688 17.796875 -63.695312 17.484375 -57.46875 C 17.179688 -51.25 17.03125 -43.753906 17.03125 -34.984375 C 17.03125 -28.179688 17.164062 -22.363281 17.4375 -17.53125 C 17.707031 -12.707031 18.117188 -8.085938 18.671875 -3.671875 C 18.804688 -1.765625 18.484375 -0.507812 17.703125 0.09375 C 16.921875 0.707031 15.578125 1.015625 13.671875 1.015625 Z M 13.671875 1.015625 "/></g></g><g style="fill:#5e17eb;fill-opacity:1;"><g transform="translate(212.791576, 337.287046)"><path style="stroke:none" d="M 12.546875 1.015625 C 10.578125 1.015625 9.285156 0.675781 8.671875 0 C 8.054688 -0.675781 7.785156 -1.660156 7.859375 -2.953125 C 7.992188 -5.953125 8.160156 -9.367188 8.359375 -13.203125 C 8.566406 -17.046875 8.703125 -20.804688 8.765625 -24.484375 C 8.835938 -26.660156 8.90625 -28.867188 8.96875 -31.109375 C 9.039062 -33.347656 9.078125 -35.625 9.078125 -37.9375 C 9.078125 -41.070312 8.972656 -44.269531 8.765625 -47.53125 C 8.703125 -48.957031 8.992188 -50.0625 9.640625 -50.84375 C 10.285156 -51.625 11.628906 -52.015625 13.671875 -52.015625 C 16.046875 -52.015625 17.335938 -50.960938 17.546875 -48.859375 C 17.679688 -47.160156 17.78125 -45.359375 17.84375 -43.453125 C 17.914062 -41.546875 17.953125 -39.609375 17.953125 -37.640625 C 17.953125 -35.941406 17.929688 -34.273438 17.890625 -32.640625 C 17.859375 -31.003906 17.8125 -29.40625 17.75 -27.84375 C 17.75 -26.414062 17.695312 -24.613281 17.59375 -22.4375 C 17.488281 -20.257812 17.382812 -17.945312 17.28125 -15.5 C 17.1875 -13.050781 17.085938 -10.722656 16.984375 -8.515625 C 16.878906 -6.304688 16.796875 -4.453125 16.734375 -2.953125 C 16.734375 -1.460938 16.375 -0.429688 15.65625 0.140625 C 14.945312 0.722656 13.910156 1.015625 12.546875 1.015625 Z M 8.265625 -69.96875 C 8.191406 -70.71875 8.171875 -71.3125 8.203125 -71.75 C 8.242188 -72.195312 8.265625 -72.726562 8.265625 -73.34375 C 8.265625 -74.832031 8.632812 -75.898438 9.375 -76.546875 C 10.125 -77.191406 11.421875 -77.515625 13.265625 -77.515625 C 15.441406 -77.515625 16.9375 -77.175781 17.75 -76.5 C 18.5625 -75.820312 18.96875 -74.9375 18.96875 -73.84375 C 18.96875 -72.957031 18.953125 -72.15625 18.921875 -71.4375 C 18.890625 -70.726562 18.835938 -70.101562 18.765625 -69.5625 C 18.628906 -68.132812 18.148438 -67.164062 17.328125 -66.65625 C 16.515625 -66.144531 15.191406 -65.890625 13.359375 -65.890625 C 11.316406 -65.890625 9.957031 -66.242188 9.28125 -66.953125 C 8.601562 -67.671875 8.265625 -68.675781 8.265625 -69.96875 Z M 8.265625 -69.96875 "/></g></g><g style="fill:#5e17eb;fill-opacity:1;"><g transform="translate(239.515567, 337.287046)"><path style="stroke:none" d="M 31.421875 1.015625 C 22.785156 1.015625 16.304688 -1.363281 11.984375 -6.125 C 7.671875 -10.882812 5.515625 -17.378906 5.515625 -25.609375 C 5.515625 -30.835938 6.460938 -35.421875 8.359375 -39.359375 C 10.265625 -43.304688 13.140625 -46.398438 16.984375 -48.640625 C 20.828125 -50.890625 25.601562 -52.015625 31.3125 -52.015625 C 38.925781 -52.015625 44.617188 -50.382812 48.390625 -47.125 C 52.171875 -43.863281 54.0625 -39.75 54.0625 -34.78125 C 54.0625 -29.820312 52.410156 -25.84375 49.109375 -22.84375 C 45.816406 -19.851562 40.867188 -18.359375 34.265625 -18.359375 C 30.117188 -18.359375 26.414062 -18.882812 23.15625 -19.9375 C 19.894531 -20.988281 16.96875 -22.46875 14.375 -24.375 C 14.65625 -18.726562 16.425781 -14.375 19.6875 -11.3125 C 22.945312 -8.257812 27.570312 -6.734375 33.5625 -6.734375 C 36.820312 -6.734375 39.453125 -7.101562 41.453125 -7.84375 C 43.460938 -8.59375 45.625 -9.6875 47.9375 -11.125 C 48.414062 -11.394531 48.925781 -11.53125 49.46875 -11.53125 C 50.007812 -11.53125 50.535156 -11.359375 51.046875 -11.015625 C 51.554688 -10.671875 52.050781 -10.09375 52.53125 -9.28125 C 52.9375 -8.46875 53.140625 -7.753906 53.140625 -7.140625 C 53.140625 -5.910156 52.425781 -4.925781 51 -4.1875 C 48.414062 -2.550781 45.609375 -1.273438 42.578125 -0.359375 C 39.554688 0.554688 35.835938 1.015625 31.421875 1.015625 Z M 15.203125 -32.328125 C 17.578125 -30.492188 20.15625 -29.03125 22.9375 -27.9375 C 25.726562 -26.851562 28.894531 -26.3125 32.4375 -26.3125 C 36.582031 -26.3125 39.742188 -27.054688 41.921875 -28.546875 C 44.097656 -30.046875 45.1875 -31.988281 45.1875 -34.375 C 45.1875 -37.164062 44.097656 -39.507812 41.921875 -41.40625 C 39.742188 -43.3125 36.410156 -44.265625 31.921875 -44.265625 C 27.566406 -44.265625 23.960938 -43.191406 21.109375 -41.046875 C 18.253906 -38.910156 16.285156 -36.003906 15.203125 -32.328125 Z M 15.203125 -32.328125 "/></g></g><g style="fill:#5e17eb;fill-opacity:1;"><g transform="translate(298.981514, 337.287046)"><path style="stroke:none" d="M 13.0625 1.015625 C 11.15625 1.015625 9.960938 0.660156 9.484375 -0.046875 C 9.003906 -0.765625 8.734375 -1.632812 8.671875 -2.65625 C 8.597656 -6.257812 8.492188 -10.203125 8.359375 -14.484375 C 8.222656 -18.765625 8.15625 -23.523438 8.15625 -28.765625 C 8.15625 -31.828125 8.171875 -34.359375 8.203125 -36.359375 C 8.242188 -38.367188 8.3125 -40.253906 8.40625 -42.015625 C 8.507812 -43.785156 8.628906 -45.796875 8.765625 -48.046875 C 8.835938 -50.628906 10.097656 -51.921875 12.546875 -51.921875 C 14.648438 -51.921875 16.039062 -51.578125 16.71875 -50.890625 C 17.40625 -50.210938 17.710938 -49.265625 17.640625 -48.046875 L 17.234375 -43.34375 C 19.140625 -46.34375 21.46875 -48.503906 24.21875 -49.828125 C 26.976562 -51.148438 29.648438 -51.8125 32.234375 -51.8125 C 34.816406 -51.8125 37.023438 -51.539062 38.859375 -51 C 40.691406 -50.457031 42.289062 -49.640625 43.65625 -48.546875 C 44.40625 -47.867188 44.78125 -47.125 44.78125 -46.3125 C 44.78125 -45.425781 44.441406 -44.4375 43.765625 -43.34375 C 43.421875 -42.738281 42.972656 -42.226562 42.421875 -41.8125 C 41.878906 -41.40625 41.304688 -41.203125 40.703125 -41.203125 C 40.085938 -41.203125 39.609375 -41.335938 39.265625 -41.609375 C 36.890625 -43.109375 33.96875 -43.859375 30.5 -43.859375 C 29.207031 -43.859375 27.796875 -43.617188 26.265625 -43.140625 C 24.734375 -42.671875 23.269531 -41.789062 21.875 -40.5 C 20.476562 -39.207031 19.320312 -37.382812 18.40625 -35.03125 C 17.488281 -32.6875 17.03125 -29.644531 17.03125 -25.90625 C 17.03125 -25.09375 17.046875 -23.75 17.078125 -21.875 C 17.117188 -20.007812 17.171875 -17.867188 17.234375 -15.453125 C 17.304688 -13.035156 17.390625 -10.6875 17.484375 -8.40625 C 17.585938 -6.132812 17.675781 -4.179688 17.75 -2.546875 C 17.75 -0.171875 16.1875 1.015625 13.0625 1.015625 Z M 13.0625 1.015625 "/></g></g><g style="fill:#5e17eb;fill-opacity:1;"><g transform="translate(346.717497, 337.287046)"><path style="stroke:none" d="M 25.296875 1.015625 C 21.347656 1.015625 17.925781 0.707031 15.03125 0.09375 C 12.144531 -0.507812 9.410156 -1.425781 6.828125 -2.65625 C 6.359375 -2.925781 5.9375 -3.28125 5.5625 -3.71875 C 5.1875 -4.164062 5 -4.726562 5 -5.40625 C 5 -5.945312 5.171875 -6.660156 5.515625 -7.546875 C 5.984375 -8.640625 6.503906 -9.40625 7.078125 -9.84375 C 7.660156 -10.28125 8.289062 -10.5 8.96875 -10.5 C 9.445312 -10.5 9.925781 -10.398438 10.40625 -10.203125 C 13.125 -9.109375 15.738281 -8.253906 18.25 -7.640625 C 20.769531 -7.035156 23.492188 -6.734375 26.421875 -6.734375 C 31.242188 -6.734375 34.640625 -7.3125 36.609375 -8.46875 C 38.585938 -9.625 39.578125 -11.457031 39.578125 -13.96875 C 39.578125 -15.195312 39.253906 -16.320312 38.609375 -17.34375 C 37.960938 -18.363281 36.769531 -19.265625 35.03125 -20.046875 C 33.300781 -20.828125 30.738281 -21.421875 27.34375 -21.828125 C 20.875 -22.578125 16.007812 -24.125 12.75 -26.46875 C 9.488281 -28.8125 7.859375 -32.46875 7.859375 -37.4375 C 7.859375 -42.394531 9.488281 -46.0625 12.75 -48.4375 C 16.007812 -50.820312 20.632812 -52.015625 26.625 -52.015625 C 31.25 -52.015625 35.085938 -51.519531 38.140625 -50.53125 C 41.203125 -49.550781 43.789062 -48.3125 45.90625 -46.8125 C 46.925781 -46.207031 47.4375 -45.425781 47.4375 -44.46875 C 47.4375 -43.71875 47.128906 -42.832031 46.515625 -41.8125 C 45.554688 -40.320312 44.46875 -39.578125 43.25 -39.578125 C 42.707031 -39.578125 42.09375 -39.75 41.40625 -40.09375 C 37.664062 -42.8125 32.804688 -44.171875 26.828125 -44.171875 C 20.160156 -44.171875 16.828125 -41.925781 16.828125 -37.4375 C 16.828125 -34.914062 17.929688 -33.078125 20.140625 -31.921875 C 22.347656 -30.765625 25.832031 -29.914062 30.59375 -29.375 C 35.425781 -28.757812 39.113281 -27.738281 41.65625 -26.3125 C 44.207031 -24.882812 45.976562 -23.132812 46.96875 -21.0625 C 47.957031 -18.988281 48.453125 -16.59375 48.453125 -13.875 C 48.453125 -9.3125 46.71875 -5.6875 43.25 -3 C 39.78125 -0.320312 33.796875 1.015625 25.296875 1.015625 Z M 25.296875 1.015625 "/></g></g><g style="fill:#000000;fill-opacity:1;"><g transform="translate(400.990985, 337.287046)"><path style="stroke:none" d="M 11.125 1.015625 C 8.945312 1.015625 7.46875 0.675781 6.6875 0 C 5.90625 -0.675781 5.476562 -1.660156 5.40625 -2.953125 C 5.40625 -3.835938 5.421875 -4.535156 5.453125 -5.046875 C 5.492188 -5.554688 5.546875 -6.148438 5.609375 -6.828125 C 5.742188 -8.253906 6.253906 -9.304688 7.140625 -9.984375 C 8.023438 -10.671875 9.421875 -10.945312 11.328125 -10.8125 C 13.359375 -10.601562 14.765625 -10.140625 15.546875 -9.421875 C 16.335938 -8.710938 16.695312 -7.679688 16.625 -6.328125 L 16.421875 -2.65625 C 16.347656 -1.632812 15.988281 -0.765625 15.34375 -0.046875 C 14.695312 0.660156 13.289062 1.015625 11.125 1.015625 Z M 11.125 1.015625 "/></g></g><g style="fill:#000000;fill-opacity:1;"><g transform="translate(423.022967, 337.287046)"><path style="stroke:none" d="M 13.671875 1.015625 C 12.242188 1.015625 11.253906 0.722656 10.703125 0.140625 C 10.160156 -0.429688 9.859375 -1.363281 9.796875 -2.65625 C 9.316406 -7.550781 8.921875 -12.734375 8.609375 -18.203125 C 8.304688 -23.679688 8.15625 -29.273438 8.15625 -34.984375 C 8.15625 -44.367188 8.304688 -52.140625 8.609375 -58.296875 C 8.921875 -64.453125 9.25 -69.671875 9.59375 -73.953125 C 9.726562 -75.304688 10.082031 -76.222656 10.65625 -76.703125 C 11.238281 -77.179688 12.207031 -77.421875 13.5625 -77.421875 C 15.539062 -77.421875 16.867188 -77.128906 17.546875 -76.546875 C 18.222656 -75.972656 18.492188 -74.972656 18.359375 -73.546875 C 18.085938 -69.054688 17.796875 -63.695312 17.484375 -57.46875 C 17.179688 -51.25 17.03125 -43.753906 17.03125 -34.984375 C 17.03125 -28.179688 17.164062 -22.363281 17.4375 -17.53125 C 17.707031 -12.707031 18.117188 -8.085938 18.671875 -3.671875 C 18.804688 -1.765625 18.484375 -0.507812 17.703125 0.09375 C 16.921875 0.707031 15.578125 1.015625 13.671875 1.015625 Z M 13.671875 1.015625 "/></g></g><g style="fill:#000000;fill-opacity:1;"><g transform="translate(450.256951, 337.287046)"><path style="stroke:none" d="M 24.171875 1.015625 C 17.984375 1.015625 13.101562 -0.476562 9.53125 -3.46875 C 5.96875 -6.457031 4.1875 -10.503906 4.1875 -15.609375 C 4.1875 -20.640625 6.019531 -24.703125 9.6875 -27.796875 C 13.363281 -30.890625 18.804688 -32.4375 26.015625 -32.4375 C 30.222656 -32.4375 34.007812 -31.585938 37.375 -29.890625 C 40.75 -28.191406 43.488281 -26.148438 45.59375 -23.765625 L 45.59375 -32.234375 C 45.59375 -36.035156 44.164062 -38.988281 41.3125 -41.09375 C 38.457031 -43.207031 34.410156 -44.265625 29.171875 -44.265625 C 26.242188 -44.265625 23.585938 -43.925781 21.203125 -43.25 C 18.828125 -42.570312 16.519531 -41.6875 14.28125 -40.59375 C 13.394531 -40.257812 12.644531 -40.09375 12.03125 -40.09375 C 10.8125 -40.09375 9.722656 -41.007812 8.765625 -42.84375 C 8.566406 -43.175781 8.429688 -43.53125 8.359375 -43.90625 C 8.296875 -44.28125 8.265625 -44.601562 8.265625 -44.875 C 8.265625 -45.96875 8.84375 -46.851562 10 -47.53125 C 12.445312 -48.957031 15.351562 -50.0625 18.71875 -50.84375 C 22.082031 -51.625 25.804688 -52.015625 29.890625 -52.015625 C 37.566406 -52.015625 43.613281 -50.3125 48.03125 -46.90625 C 52.457031 -43.507812 54.671875 -38.582031 54.671875 -32.125 C 54.671875 -30.082031 54.632812 -28.210938 54.5625 -26.515625 C 54.5 -24.816406 54.414062 -23.050781 54.3125 -21.21875 C 54.207031 -19.382812 54.15625 -17.242188 54.15625 -14.796875 C 54.15625 -13.703125 54.328125 -12.472656 54.671875 -11.109375 C 55.015625 -9.753906 55.441406 -8.460938 55.953125 -7.234375 C 56.460938 -6.015625 56.953125 -5.066406 57.421875 -4.390625 C 57.691406 -3.835938 57.828125 -3.289062 57.828125 -2.75 C 57.828125 -1.53125 56.84375 -0.507812 54.875 0.3125 C 53.988281 0.71875 53.101562 0.921875 52.21875 0.921875 C 50.519531 0.921875 49.5 0.171875 49.15625 -1.328125 C 48.414062 -2.617188 47.804688 -3.84375 47.328125 -5 C 46.847656 -6.15625 46.441406 -7.515625 46.109375 -9.078125 C 43.796875 -5.953125 40.851562 -3.488281 37.28125 -1.6875 C 33.707031 0.113281 29.335938 1.015625 24.171875 1.015625 Z M 13.15625 -16.109375 C 13.15625 -13.054688 14.34375 -10.726562 16.71875 -9.125 C 19.101562 -7.53125 22.269531 -6.734375 26.21875 -6.734375 C 29.957031 -6.734375 33.285156 -7.410156 36.203125 -8.765625 C 39.128906 -10.128906 41.882812 -12.375 44.46875 -15.5 C 43.175781 -18.289062 40.914062 -20.65625 37.6875 -22.59375 C 34.457031 -24.53125 30.734375 -25.5 26.515625 -25.5 C 21.960938 -25.5 18.597656 -24.613281 16.421875 -22.84375 C 14.242188 -21.082031 13.15625 -18.835938 13.15625 -16.109375 Z M 13.15625 -16.109375 "/></g></g><g style="fill:#000000;fill-opacity:1;"><g transform="translate(512.374907, 337.287046)"><path style="stroke:none" d="M 12.546875 1.015625 C 10.910156 0.816406 9.71875 0.363281 8.96875 -0.34375 C 8.226562 -1.0625 7.992188 -2.207031 8.265625 -3.78125 C 9.015625 -8.332031 9.539062 -13.460938 9.84375 -19.171875 C 10.144531 -24.890625 10.429688 -30.738281 10.703125 -36.71875 C 10.773438 -37.945312 10.8125 -39.238281 10.8125 -40.59375 C 10.8125 -41.957031 10.8125 -43.351562 10.8125 -44.78125 C 10.8125 -48.382812 10.757812 -52.019531 10.65625 -55.6875 C 10.550781 -59.363281 10.429688 -62.78125 10.296875 -65.9375 C 10.160156 -69.101562 10.023438 -71.671875 9.890625 -73.640625 C 9.828125 -76.085938 11.597656 -77.3125 15.203125 -77.3125 C 17.304688 -77.3125 18.492188 -76.5 18.765625 -74.875 C 18.898438 -74.125 19.035156 -72.570312 19.171875 -70.21875 C 19.304688 -67.875 19.425781 -65.070312 19.53125 -61.8125 C 19.632812 -58.550781 19.71875 -55.164062 19.78125 -51.65625 C 19.851562 -48.15625 19.890625 -44.875 19.890625 -41.8125 C 24.441406 -48.550781 31.378906 -51.921875 40.703125 -51.921875 C 45.523438 -51.921875 49.722656 -50.78125 53.296875 -48.5 C 56.867188 -46.21875 59.640625 -43.140625 61.609375 -39.265625 C 63.578125 -35.390625 64.5625 -31.039062 64.5625 -26.21875 C 64.5625 -17.78125 62.421875 -11.128906 58.140625 -6.265625 C 53.859375 -1.410156 47.738281 1.015625 39.78125 1.015625 C 34.75 1.015625 30.445312 -0.15625 26.875 -2.5 C 23.300781 -4.84375 20.53125 -8.054688 18.5625 -12.140625 C 18.425781 -10.640625 18.253906 -9.054688 18.046875 -7.390625 C 17.847656 -5.722656 17.578125 -3.972656 17.234375 -2.140625 C 16.960938 -0.710938 16.453125 0.1875 15.703125 0.5625 C 14.960938 0.9375 13.910156 1.085938 12.546875 1.015625 Z M 19.890625 -22.84375 C 22.953125 -12.300781 29.273438 -7.03125 38.859375 -7.03125 C 42.054688 -7.03125 44.910156 -7.78125 47.421875 -9.28125 C 49.941406 -10.78125 51.945312 -12.9375 53.4375 -15.75 C 54.9375 -18.570312 55.6875 -21.957031 55.6875 -25.90625 C 55.6875 -29.445312 54.988281 -32.578125 53.59375 -35.296875 C 52.207031 -38.015625 50.304688 -40.15625 47.890625 -41.71875 C 45.472656 -43.28125 42.664062 -44.0625 39.46875 -44.0625 C 34.300781 -44.0625 30.015625 -42.289062 26.609375 -38.75 C 23.210938 -35.21875 20.972656 -29.914062 19.890625 -22.84375 Z M 19.890625 -22.84375 "/></g></g><g clip-rule="nonzero" clip-path="url(#00f3b43d20)"><g clip-rule="nonzero" clip-path="url(#a350cd69f7)"><path style=" stroke:none;fill-rule:nonzero;fill:#5e17eb;fill-opacity:1;" d="M 240.878906 226.6875 L 269.128906 226.6875 L 269.128906 254.941406 L 240.878906 254.941406 Z M 240.878906 226.6875 "/></g></g><g clip-rule="nonzero" clip-path="url(#e5c717f77c)"><g clip-rule="nonzero" clip-path="url(#e91fe5a068)"><path style="fill:none;stroke-width:8;stroke-linecap:butt;stroke-linejoin:miter;stroke:#5e17eb;stroke-opacity:1;stroke-miterlimit:4;" d="M 18.830033 -0.000384971 C 8.428991 -0.000384971 0.0019075 8.431907 0.0019075 18.827741 C 0.0019075 29.228783 8.428991 37.655867 18.830033 37.655867 C 29.225867 37.655867 37.658159 29.228783 37.658159 18.827741 C 37.658159 8.431907 29.225867 -0.000384971 18.830033 -0.000384971 Z M 18.830033 -0.000384971 " transform="matrix(0.75,0,0,0.75,240.877476,226.687789)"/></g></g><g clip-rule="nonzero" clip-path="url(#8638a257a9)"><g clip-rule="nonzero" clip-path="url(#28c09a6a68)"><path style=" stroke:none;fill-rule:nonzero;fill:#5e17eb;fill-opacity:1;" d="M 212.625 251.488281 L 240.878906 251.488281 L 240.878906 279.738281 L 212.625 279.738281 Z M 212.625 251.488281 "/></g></g><g clip-rule="nonzero" clip-path="url(#08d5267586)"><g clip-rule="nonzero" clip-path="url(#57e90357cd)"><path style="fill:none;stroke-width:8;stroke-linecap:butt;stroke-linejoin:miter;stroke:#5e17eb;stroke-opacity:1;stroke-miterlimit:4;" d="M 18.827161 0.000351974 C 8.431328 0.000351974 -0.000964304 8.427436 -0.000964304 18.828478 C -0.000964304 29.224312 8.431328 37.656604 18.827161 37.656604 C 29.228204 37.656604 37.655287 29.224312 37.655287 18.828478 C 37.655287 8.427436 29.228204 0.000351974 18.827161 0.000351974 Z M 18.827161 0.000351974 " transform="matrix(0.75,0,0,0.75,212.625723,251.488017)"/></g></g></g></svg>